REM MD5 ffe966d21559585b67ecdf6ee5b7c5e2
FILE "Euro Demo (Future) 102 (Europe).bin" BINARY
  TRACK 01 MODE2/2352
    INDEX 01 00:00:00
  TRACK 02 AUDIO
    INDEX 00 54:09:12
    INDEX 01 54:11:12
  TRACK 03 AUDIO
    INDEX 00 57:21:12
    INDEX 01 57:23:12
  TRACK 04 AUDIO
    INDEX 00 58:33:08
    INDEX 01 58:35:08
  TRACK 05 AUDIO
    INDEX 00 59:36:06
    INDEX 01 59:38:06
REM LEADOUT 62:39:38
